<?xml version="1.0" standalone="no"?>
<!DOCTYPE svg PUBLIC "-//W3C//DTD SVG 20010904//EN"
 "http://www.w3.org/TR/2001/REC-SVG-20010904/DTD/svg10.dtd">
<svg width="1920px" height="1920px" viewBox="0 0 1920 1920" version="1.1" xmlns="http://www.w3.org/2000/svg" xmlns:xlink="http://www.w3.org/1999/xlink" xmlns:sketch="http://www.bohemiancoding.com/sketch/ns" preserveAspectRatio="xMidYMid meet">

  <g id="Page-1" stroke="none" stroke-width="1" fill="none" fill-rule="evenodd" sketch:type="MSPage">
        <g id="board-icon" sketch:type="MSArtboardGroup" fill="#F6F6F6">
<path d="M456 2305 c-21 -7 -54 -28 -72 -46 -47 -46 -50 -6 36 -649 11 -80 22
-174 26 -210 l6 -65 486 -487 487 -488 -453 0 c-494 0 -490 0 -539 58 -13 15
-23 22 -23 17 0 -18 52 -67 86 -81 50 -21 1958 -21 2008 0 50 21 88 66 81 96
-4 19 -3 21 5 10 7 -11 9 -2 9 35 -1 42 -2 46 -10 25 -6 -17 -7 1 -4 55 5 106
-6 279 -16 245 -5 -14 -6 22 -4 80 2 78 1 93 -5 60 -6 -33 -8 -13 -6 75 2 74
0 105 -5 80 -4 -25 -6 3 -4 75 2 83 1 98 -5 55 l-7 -60 -1 68 c-2 73 -12 82
-39 40 -106 -168 -380 -463 -538 -578 -122 -90 -260 -176 -365 -229 l-95 -48
189 190 190 191 65 3 66 3 3 65 3 65 175 176 176 176 -54 6 c-29 4 -110 7
-180 7 l-128 0 0 -245 0 -245 -71 0 -70 0 2 242 2 243 -164 5 -164 6 168 2
167 2 0 170 c0 94 -4 170 -8 170 -4 0 -61 -18 -125 -39 l-117 -40 0 59 0 58
73 26 c39 14 116 42 171 61 54 19 107 35 117 35 18 0 19 -12 19 -250 l0 -250
272 2 273 3 7 55 c11 87 46 358 73 563 14 103 25 206 25 230 0 45 -33 112 -50
102 -6 -4 -13 1 -16 9 -3 9 -10 13 -15 10 -5 -3 -9 0 -9 5 0 8 -312 11 -1032
11 -853 -1 -1040 -3 -1072 -15z m819 -492 c67 -23 137 -93 154 -156 20 -71 17
-145 -7 -194 -21 -40 -95 -113 -116 -113 -6 0 7 -9 29 -19 45 -20 91 -69 112
-118 20 -49 16 -160 -8 -213 -75 -166 -310 -222 -482 -113 -44 28 -93 93 -101
134 -3 16 -9 43 -12 59 l-6 30 65 0 65 0 7 -41 c9 -51 54 -104 102 -120 52
-17 155 -6 191 20 41 29 62 79 62 146 0 121 -66 175 -216 175 l-74 0 0 49 0
48 79 5 c136 8 193 53 199 161 6 109 -43 167 -147 175 -47 3 -69 0 -104 -17
-47 -23 -87 -80 -87 -125 0 -25 -1 -26 -66 -26 l-66 0 7 37 c19 101 94 190
184 217 64 20 177 20 236 -1z" id="Path" sketch:type="MSShapeGroup"></path>
</g>
    </g>
</svg>
