<?xml version="1.0" encoding="UTF-8" standalone="no"?>
<!-- Created with Inkscape (http://www.inkscape.org/) -->
<svg
   xmlns:svg="http://www.w3.org/2000/svg"
   xmlns="http://www.w3.org/2000/svg"
   version="1.0"
   width="500"
   height="300"
   id="svg5681">
  <defs
     id="defs5683" />
  <g
     transform="translate(-100.54748,-258.9207)"
     id="layer1">
    <g
       transform="translate(9.4217615,7.5311219)"
       id="g5732">
      <path
         d="M 468.73119,413.45946 C 468.90229,385.7189 470.32075,358.09932 470.396,330.37127 C 470.45385,309.05163 467.12044,268.28889 478.17587,266.62439 C 492.22157,264.50969 486.34479,294.65781 487.08968,306.8775 C 489.52541,346.83455 484.91387,387.32198 483.89599,427.31328 C 483.50619,442.62813 485.0204,469.37809 473.36109,475.81493 C 461.30597,478.58306 468.1505,425.83495 468.73119,413.45946 z "
         style="fill:#67ba43"
         id="path5705" />
      <path
         d="M 518.85718,479.2287 C 493.42651,475.14101 501.31985,442.40291 499.37643,423.4753 C 497.1543,401.83325 511.64408,377.64427 533.28615,376.6809 C 551.2054,375.88324 583.24422,379.2924 581.64637,404.45175 C 580.32647,425.23459 559.22337,441.2713 539.58454,435.94227 C 520.79947,430.84491 502.04134,453.54044 520.23351,463.41541 C 535.88299,471.91017 552.11224,450.29368 567.26821,443.65978 C 586.95317,435.04351 567.44741,475.6145 553.27364,476.47633 C 541.8577,477.17047 530.2137,481.05413 518.85718,479.2287 z M 555.85718,416.74216 C 580.72133,406.35832 553.41904,387.3055 536.6536,389.42134 C 518.60937,391.69856 501.9126,420.85757 528.93773,419.58154 C 537.91382,419.15772 547.26005,420.33252 555.85718,416.74216 z M 133.1508,454.19742 C 107.93949,446.49626 98.844501,415.58216 101.04435,390.27331 C 103.13002,366.2781 96.478973,340.54907 105.13581,317.74893 C 113.07386,296.84192 124.27995,271.05663 145.67015,263.06969 C 166.02918,255.46778 193.60066,257.94363 211.68982,273.56257 C 225.53212,285.51458 217.18476,307.80394 201.61961,290.60228 C 185.62509,272.9261 157.64418,268.85651 140.12867,286.65126 C 124.43005,302.60017 116.01827,323.80397 116.89786,346.29565 C 117.8729,371.22821 114.16366,397.46595 121.56594,421.2989 C 128.93892,445.03752 163.2324,442.22588 182.43825,432.30936 C 198.54729,423.99181 219.78499,380.59054 188.15318,388.69091 C 173.86276,392.35045 135.01125,377.75003 162.54702,370.45029 C 180.11,365.79433 216.39543,368.50589 220.38307,375.95465 C 223.55745,381.88427 220.78664,424.58638 206.47461,439.75938 C 189.36157,457.9019 156.78243,461.41605 133.1508,454.19742 z "
         style="fill:#fd0e0e"
         id="path5701" />
      <path
         d="M 322.12164,471.24429 C 304.16066,462.96875 300.4614,439.79498 299.99848,421.79093 C 299.4589,400.8053 314.64266,376.59276 335.07328,375.0946 C 355.23747,373.61597 371.65353,397.22169 376.73744,416.7797 C 382.38353,438.50047 372.31636,457.88614 353.35272,467.3965 C 343.76473,472.20493 332.00667,475.79883 322.12164,471.24429 z M 347.35715,453.17148 C 368.79527,442.43893 367.62075,408.85574 347.94174,397.41158 C 327.85424,385.72987 317.66923,415.70912 318.91287,432.16514 C 319.95051,445.89543 333.1965,460.26071 347.35715,453.17148 z "
         style="fill:#fbfb11"
         id="path5707" />
      <path
         d="M 404.35715,541.49237 C 390.13796,536.27076 379.44339,502.79774 393.28909,498.0806 C 405.91147,493.78023 395.92892,539.46172 421.63586,531.16453 C 443.1082,524.2341 444.82882,487.22173 432.97084,478.84556 C 420.10378,469.75659 384.25254,474.48784 387.72143,448.0748 C 390.59427,426.20027 396.23284,396.78542 418.49244,388.10116 C 443.51547,378.3388 459.49893,403.87221 454.76554,427.81791 C 448.63254,458.84414 454.59457,491.83307 449.76485,523.03956 C 446.72249,542.69729 420.35357,547.36662 404.35715,541.49237 z M 427.95169,460.35593 C 439.86425,446.25917 447.57175,421.87426 437.17375,409.06368 C 420.57964,388.61935 400.11769,435.0746 405.38236,452.42825 C 408.14354,461.52978 421.92288,467.49014 427.95169,460.35593 z M 240.44357,463.85965 C 217.37785,455.80112 218.30538,427.13076 224.0337,407.29023 C 230.31456,385.5359 257.3142,367.17033 277.05639,382.86909 C 291.89294,394.66695 299.82488,416.20332 297.73992,434.55355 C 295.51195,454.16239 274.1817,468.13673 254.19488,466.00471 C 249.57568,465.51197 244.84753,465.39828 240.44357,463.85965 z M 269.43307,447.03302 C 287.88932,436.27189 286.4706,394.32127 262.5688,392.89395 C 238.49241,391.45621 224.38467,434.00497 244.04403,447.44364 C 250.83375,452.08493 261.96698,451.38621 269.43307,447.03302 z "
         style="fill:#0f0ffd"
         id="path5703" />
    </g>
  </g>
</svg>
